# This file uses centimeters as units for non-parametric coordinates.

v -0.329281 1.256063 -0.179970
v -0.377257 1.389863 -0.079737
v -0.443131 1.393221 -0.237558
v 0.228873 1.376610 0.106268
v 0.062323 1.378998 0.145171
v 0.110300 1.245197 0.044938
v -0.438042 1.682485 -0.233528
v -0.372169 1.679127 -0.075707
v -0.319468 1.813897 -0.172199
v 0.120113 1.803032 0.052709
v 0.067412 1.668262 0.149201
v 0.233962 1.665874 0.110297
v -0.345568 1.686393 -0.630847
v -0.139139 1.815634 -0.524567
v -0.057786 1.682155 -0.690018
v 0.381794 1.671289 -0.465110
v 0.300442 1.804768 -0.299659
v 0.502147 1.665439 -0.197120
v -0.462820 1.396049 -0.415705
v -0.061663 1.461759 -0.693088
v -0.261116 1.256719 -0.313167
v 0.178465 1.245854 -0.088259
v 0.377917 1.450894 -0.468180
v 0.384894 1.375094 0.018021
v -0.171343 1.041291 -0.626895
v -0.085266 1.176382 -0.788604
v 0.454140 1.162131 -0.513113
v 0.368063 1.027040 -0.351403
v -0.425107 1.193797 -0.749694
v 0.622259 1.166073 -0.214801
v 0.129203 1.365661 -0.731782
v 0.291474 1.361650 -0.648757
v 0.320059 1.280476 -0.664990
v 0.120937 1.285737 -0.766688
vt 0.099908 0.161786
vt 0.074192 0.168883
vt 0.064603 0.212123
vt 0.109760 0.199660
vt 0.092632 0.133817
vt 0.197182 0.134939
vt 0.189906 0.106970
vt 0.092632 0.133817
vt 0.074192 0.168883
vt 0.222898 0.127841
vt 0.207034 0.172813
vt 0.252192 0.160350
vt 0.222898 0.127841
vt 0.189906 0.106970
vt 0.099908 0.161786
vt 0.125972 0.261981
vt 0.080815 0.274444
vt 0.197182 0.134939
vt 0.268404 0.222670
vt 0.223246 0.235133
vt 0.138072 0.308494
vt 0.138072 0.308494
vt 0.235346 0.281647
vt 0.235346 0.281647
vt 0.119313 0.283629
vt 0.131413 0.330143
vt 0.250766 0.297320
vt 0.238666 0.250806
vt 0.062785 0.297705
vt 0.294532 0.233980
vt 0.176442 0.330725
vt 0.212350 0.320814
vt 0.218042 0.326600
vt 0.173983 0.338716
vn -0.466305 -0.852952 0.234589
vn -0.924540 -0.356345 0.135067
vn -0.856383 -0.330662 -0.396574
vn -0.370736 -0.906460 0.202199
vn -0.687526 -0.339116 0.642112
vn -0.466305 -0.852952 0.234589
vn 0.048901 -0.865687 0.498191
vn -0.132052 -0.352846 0.926316
vn -0.924540 -0.356345 0.135067
vn -0.687526 -0.339116 0.642112
vn -0.675491 0.345070 0.651643
vn -0.883999 0.454398 0.109852
vn 0.416767 -0.389500 0.821337
vn 0.048901 -0.865687 0.498191
vn 0.017486 -0.916196 0.400349
vn 0.831734 -0.319212 0.454227
vn -0.132052 -0.352846 0.926316
vn 0.416767 -0.389500 0.821337
vn 0.445268 0.421540 0.789962
vn -0.120017 0.331339 0.935847
vn -0.883999 0.454398 0.109852
vn -0.428059 0.873638 0.231347
vn -0.082104 0.931859 -0.353409
vn -0.620800 0.513490 -0.592398
vn -0.428059 0.873638 0.231347
vn -0.675491 0.345070 0.651643
vn -0.120017 0.331339 0.935847
vn 0.096799 0.860664 0.499887
vn 0.096799 0.860664 0.499887
vn 0.445268 0.421540 0.789962
vn 0.863035 0.476812 0.166795
vn 0.370937 0.920660 -0.121614
vn -0.620800 0.513490 -0.592398
vn 0.089506 0.455560 -0.885694
vn 0.015056 0.387571 -0.921717
vn -0.856383 -0.330662 -0.396574
vn 0.089506 0.455560 -0.885694
vn -0.082104 0.931859 -0.353409
vn 0.370937 0.920660 -0.121614
vn 0.683481 0.440878 -0.581791
vn 0.683481 0.440878 -0.581791
vn 0.863035 0.476812 0.166795
vn 0.831734 -0.319212 0.454227
vn 0.759863 0.362918 -0.539351
vn -0.195124 -0.977406 -0.081267
vn 0.047956 -0.353584 -0.934173
vn 0.712193 -0.373927 -0.594104
vn 0.139544 -0.986192 0.089176
vn -0.687526 -0.339116 0.642112
vn -0.132052 -0.352846 0.926316
vn -0.120017 0.331339 0.935847
vn -0.675491 0.345070 0.651643
vn -0.428059 0.873638 0.231347
vn 0.096799 0.860664 0.499887
vn 0.370937 0.920660 -0.121614
vn -0.082104 0.931859 -0.353409
vn 0.089506 0.455560 -0.885694
vn 0.683481 0.440878 -0.581791
vn 0.759863 0.362918 -0.539351
vn 0.015056 0.387571 -0.921717
vn -0.370736 -0.906460 0.202199
vn 0.017486 -0.916196 0.400349
vn 0.048901 -0.865687 0.498191
vn -0.466305 -0.852952 0.234589
vn 0.416767 -0.389500 0.821337
vn 0.831734 -0.319212 0.454227
vn 0.863035 0.476812 0.166795
vn 0.445268 0.421540 0.789962
vn -0.856383 -0.330662 -0.396574
vn -0.924540 -0.356345 0.135067
vn -0.883999 0.454398 0.109852
vn -0.620800 0.513490 -0.592398
vn -0.466305 -0.852952 0.234589
vn -0.687526 -0.339116 0.642112
vn -0.924540 -0.356345 0.135067
vn 0.416767 -0.389500 0.821337
vn -0.132052 -0.352846 0.926316
vn 0.048901 -0.865687 0.498191
vn -0.883999 0.454398 0.109852
vn -0.675491 0.345070 0.651643
vn -0.428059 0.873638 0.231347
vn 0.096799 0.860664 0.499887
vn -0.120017 0.331339 0.935847
vn 0.445268 0.421540 0.789962
vn -0.620800 0.513490 -0.592398
vn -0.082104 0.931859 -0.353409
vn 0.089506 0.455560 -0.885694
vn 0.683481 0.440878 -0.581791
vn 0.370937 0.920660 -0.121614
vn 0.863035 0.476812 0.166795
vn -0.617475 -0.533092 -0.578392
vn 0.047956 -0.353584 -0.934173
vn -0.195124 -0.977406 -0.081267
vn 0.139544 -0.986192 0.089176
vn 0.712193 -0.373927 -0.594104
vn 0.805773 -0.573566 0.147484
vn 0.250594 0.537668 -0.805056
vn 0.527167 0.528702 -0.665259
vn 0.600378 0.014859 -0.799579
vn 0.295785 0.024995 -0.954927
vn 0.017486 -0.916196 0.400349
vn -0.370736 -0.906460 0.202199
vn -0.195124 -0.977406 -0.081267
vn 0.139544 -0.986192 0.089176
vn -0.856383 -0.330662 -0.396574
vn 0.015056 0.387571 -0.921717
vn 0.047956 -0.353584 -0.934173
vn -0.617475 -0.533092 -0.578392
vn -0.856383 -0.330662 -0.396574
vn -0.617475 -0.533092 -0.578392
vn 0.805773 -0.573566 0.147484
vn 0.712193 -0.373927 -0.594104
vn 0.831734 -0.319212 0.454227
vn 0.805773 -0.573566 0.147484
vn 0.015056 0.387571 -0.921717
vn 0.759863 0.362918 -0.539351
vn 0.527167 0.528702 -0.665259
vn 0.250594 0.537668 -0.805056
vn 0.759863 0.362918 -0.539351
vn 0.712193 -0.373927 -0.594104
vn 0.600378 0.014859 -0.799579
vn 0.527167 0.528702 -0.665259
vn 0.712193 -0.373927 -0.594104
vn 0.047956 -0.353584 -0.934173
vn 0.295785 0.024995 -0.954927
vn 0.600378 0.014859 -0.799579
vn 0.047956 -0.353584 -0.934173
vn 0.015056 0.387571 -0.921717
vn 0.250594 0.537668 -0.805056
vn 0.295785 0.024995 -0.954927
f 1/1/1 3/2/2 19/3/3 21/4/4
f 2/5/5 1/1/6 6/6/7 5/7/8
f 3/2/9 2/5/10 8/8/11 7/9/12
f 4/10/13 6/6/14 22/11/15 24/12/16
f 5/7/17 4/10/18 12/13/19 11/14/20
f 7/9/21 9/15/22 14/16/23 13/17/24
f 9/15/25 8/8/26 11/14/27 10/18/28
f 10/18/29 12/13/30 18/19/31 17/20/32
f 13/17/33 15/21/34 20/22/35 19/3/36
f 15/21/37 14/16/38 17/20/39 16/23/40
f 16/23/41 18/19/42 24/12/43 23/24/44
f 25/25/45 26/26/46 27/27/47 28/28/48
f 2/5/49 5/7/50 11/14/51 8/8/52
f 9/15/53 10/18/54 17/20/55 14/16/56
f 15/21/57 16/23/58 23/24/59 20/22/60
f 21/4/61 22/11/62 6/6/63 1/1/64
f 4/10/65 24/12/66 18/19/67 12/13/68
f 19/3/69 3/2/70 7/9/71 13/17/72
f 1/1/73 2/5/74 3/2/75
f 4/10/76 5/7/77 6/6/78
f 7/9/79 8/8/80 9/15/81
f 10/18/82 11/14/83 12/13/84
f 13/17/85 14/16/86 15/21/87
f 16/23/88 17/20/89 18/19/90
f 29/29/91 26/26/92 25/25/93
f 28/28/94 27/27/95 30/30/96
f 31/31/97 32/32/98 33/33/99 34/34/100
f 22/11/101 21/4/102 25/25/103 28/28/104
f 19/3/105 20/22/106 26/26/107 29/29/108
f 21/4/102 19/3/109 29/29/110 25/25/103
f 23/24/44 24/12/43 30/30/111 27/27/112
f 24/12/113 22/11/101 28/28/104 30/30/114
f 20/22/115 23/24/116 32/32/117 31/31/118
f 23/24/119 27/27/120 33/33/121 32/32/122
f 27/27/123 26/26/124 34/34/125 33/33/126
f 26/26/127 20/22/128 31/31/129 34/34/130
